P1
# CREATOR: GIMP PNM Filter Version 1.1
200 184
0000000000000000000000000000000000000000000000000000000000000000000000
0000000000000000000000000000000000000000000000000000000000000000000000
0000000000000000000000011000000000000000000000000000000000000000000000
0000000000000000000000000000000000000000000000000000000000000000000000
0000000000000000000000000000000000000000000000000000000000000000000000
0000000000001110000000000000000000000000000000000000000000000000000000
0000000000000000000000000000000000000000000000000000000000000000000000
0000000000000000000000000000000000000000000000000000000000000000000000
0111100000000000000000000000000000000000000000000000000000000000000000
0000000000000000000000000000000000000000000000000000000000000000000000
0000000000000000000000000000000000000000000000000000000000000111100000
0000000000000000000000000000000000000000000000000000000000000000000000
0000000000000000000000000000000000000000000000000000000000000000000000
0000000000000000000000000000000000000000000000000011111000000000000000
0000000000000000000000000000000000000000000000000000000000000000000000
0000000000000000000000000000000000000000000000000000000000000000000000
0000000000000000000000000000000000000001111110000000000000000000000000
0000000000000000000000000000000000000000000000000000000000000000000000
0000000000000000000000000000000000000000000000000000000000000000000000
0000000000000000000000000000111111100000000000000000000000000000000000
0000000000000000000000000000000000000000000000000000000000000000000000
0000000000000000000000000000000000000000000000000000000000000000000000
0000000000000000011111111000000000000000000000000000000000000000000000
0000000000000000000000000000000000000000000000000000000000000000000000
0000000000000000000000000000000000000000000000000000000000000000000000
0000001111111110000000000000000000000000000000000000000000000000000000
0000000000000000000000000000000000000000000000000000000000000000000000
0000000000000000000000000000000000000000000000000000000000000000011111
1111100000000000000000000000000000000000000000000000000000000000000000
0000000000000000000000000000000000000000000000000000000000000000000000
0000000000000000000000000000000000000000000000000000001111111111100000
0000000000000000000000000000000000000000000000000000000000000000000000
0000000000000000000000000000000000000000000000000000000000000000000000
0000000000000000000000000000000000000000000111111111111000000000000000
0000000000000000000000000000000000000000000000000000000000000000000000
0000000000000000000000000000000000000000000000000000000000000000000000
0000000000000000000000000000000011111111111110000000000000000000000000
0000000000000000000000000000000000000000000000000000000000000000000000
0000000000000000000000000000000000000000000000000000000000000000000000
0000000000000000000001111111111111100000000000000000000000000000000000
0000000000000000000000000000000000000000000000000000000000000000000000
0000000000000000000000000000000000000000000000000000000000000000000000
0000000000111111111111111000000000000000000000000000000000000000000000
0000000000000000000000000000000000000000000000000000000000000000000000
0000000000000000000000000000000000000000000000000000000000000000000001
1111111111111110000000000000000000000000000000000000000000000000000000
0000000000000000000000000000000000000000000000000000000000000000000000
0000000000000000000000000000000000000000000000000000000000011111111111
1111100000000000000000000000000000000000000000000000000000000000000000
0000000000000000000000000000000000000000000000000000000000000000000000
0000000000000000000000000000000000000000000000001111111111111111100000
0000000000000000000000000000000000000000000000000000000000000000000000
0000000000000000000000000000000000000000000000000000000000000000000000
0000000000000000000000000000000000000111111111111111111100000000000000
0000000000000000000000000000000000000000000000000000000000000000000000
0000000000000000000000000000000000000000000000000000000000000000000000
0000000000000000000000000011111111111111111111100000000000000000000000
0000000000000000000000000000000000000000000000000000000000000000000000
0000000000000000000000000000000000000000000000000000000000000000000000
0000000000000001111111111111111111111100000000000000000000000000000000
0000000000000000000000000000000000000000000000000000000000000000000000
0000000000000000000000000000000000000000000000000000000000000000000000
0000111111111111111111111111100000000000000000000000000000000000000000
0000000000000000000000000000000000000000000000000000000000000000000000
0000000000000000000000000000000000000000000000000000000000000001111111
1111111111111111111100000000000000000000000000000000000000000000000000
0000000000000000000000000000000000000000000000000000000000000000000000
0000000000000000000000000000000000000000000000000000111111111111111111
1111111111100000000000000000000000000000000000000000000000000000000000
0000000000000000000000000000000000000000000000000000000000000000000000
0000000000000000000000000000000000000000011111111111111111111111111111
1100000000000000000000000000000000000000000000000000000000000000000000
0000000000000000000000000000000000000000000000000000000000000000000000
0000000000000000000000000000001111111111111111111111111111111110000000
0000000000000000000000000000000000000000000000000000000000000000000000
0000000000000000000000000000000000000000000000000000000000000000000000
0000000000000000000111111111111111111111111111111111110000000000000000
0000000000000000000000000000000000000000000000000000000000000000000000
0000000000000000000000000000000000000000000000000000000000000000000000
0000000011111111111111111111111111111111111110000000000000000000000000
0000000000000000000000000000000000000000000000000000000000000000000000
0000000000000000000000000000000000000000000000000000000000000000000011
1111111111111111111111111111111111110000000000000000000000000000000000
0000000000000000000000000000000000000000000000000000000000000000000000
0000000000000000000000000000000000000000000000000000000001111111111111
1111111111111111111111111110000000000000000000000000000000000000000000
0000000000000000000000000000000000000000000000000000000000000000000000
0000000000000000000000000000000000000000000000111111111111111111111111
1111111111111111110000000000000000000000000000000000000000000000000000
0000000000000000000000000000000000000000000000000000000000000000000000
0000000000000000000000000000000000011111111111111111111111111111111111
1111111110000000000000000000000000000000000000000000000000000000000000
0000000000000000000000000000000000000000000000000000000000000000000000
0000000000000000000000001111111111111111111111111111111111111111111111
0000000000000000000000000000000000000000000000000000000000000000000000
0000000000000000000000000000000000000000000000000000000000000000000000
0000000000000111111111111111111111111111111111111111111111111000000000
0000000000000000000000000000000000000000000000000000000000000000000000
0000000000000000000000000000000000000000000000000000000000000000000000
0011111111111111111111111111111111111111111111111111000000000000000000
0000000000000000000000000000000000000000000000000000000000000000000000
0000000000000000000000000000000000000000000000000000000000000111111111
1111111111111111111111111111111111111111111000000000000000000000000000
0000000000000000000000000000000000000000000000000000000000000000000000
0000000000000000000000000000000000000000000000000011111111111111111111
1111111111111111111111111111111111000000000000000000000000000000000000
0000000000000000000000000000000000000000000000000000000000000000000000
0000000000000000000000000000000000000001111111111111111111111111111111
1111111111111111111111111000000000000000000000000000000000000000000000
0000000000000000000000000000000000000000000000000000000000000000000000
0000000000000000000000000000111111111111111111111111111111111111111111
1111111111111111000000000000000000000000000000000000000000000000000000
0000000000000000000000000000000000000000000000000000000000000000000000
0000000000000000011111111111111111111111111111111111111111111111111111
1111111000000000000000000000000000000000000000000000000000000000000000
0000000000000000000000000000000000000000000000000000000000000000000000
0000000111111111111111111111111111111111111111111111111111111111111100
0000000000000000000000000000000000000000000000000000000000000000000000
0000000000000000000000000000000000000000000000000000000000000000001111
1111111111111111111111111111111111111111111111111111111111100000000000
0000000000000000000000000000000000000000000000000000000000000000000000
0000000000000000000000000000000000000000000000000000000111111111111111
1111111111111111111111111111111111111111111111111100000000000000000000
0000000000000000000000000000000000000000000000000000000000000000000000
0000000000000000000000000000000000000000000011111111111111111111111111
1111111111111111111111111111111111111111100000000000000000000000000000
0000000000000000000000000000000000000000000000000000000000000000000000
0000000000000000000000000000000001111111111111111111111111111111111111
1111111111111111111111111111111100000000000000000000000000000000000000
0000000000000000000000000000000000000000000000000000000000000000000000
0000000000000000000000011111111111111111111111111111111111111111111111
1111111111111111111111100000000000000000000000000000000000000000000000
0000000000000000000000000000000000000000000000000000000000000000000000
0000000000000011111111111111111111111111111111111111111111111111111111
1111111111111100000000000000000000000000000000000000000000000000000000
0000000000000000000000000000000000000000000000000000000000000000000000
0000011111111111111111111111111111111111111111111111111111111111111111
1111100000000000000000000000000000000000000000000000000000000000000000
0000000000000000000000000000000000000000000000000000000000000000001111
1111111111111111111111111111111111111111111111111111111111111111110000
0000000000000000000000000000000000000000000000000000000000000000000000
0000000000000000000000000000000000000000000000000000000001111111111111
1111111111111111111111111111111111111111111111111111111110000000111110
0000000000000000000000000000000000000000000000000000000000000000000000
0000000000000000000000000000000000000000000000001111111111111111111111
1111111111111111111111111111111111111111111111110000011111110000000000
0000000000000000000000000000000000000000000000000000000000000000000000
0000000000000000000000000000000000000001111111111111111111111111111111
1111111111111111111111111111111111111110001111111111000000000000000000
0000000000000000000000000000000000000000000000000000000000000000000000
0000000000000000000000000000001111111111111111111111111111111111111111
1111111111111111111111111111110111111111111000000000000000000000000000
0000000000000000000000000000000000000000000000000000000000000000000000
0000000000000000000001111111111111111111111111111111111111111111111111
1111111111111111111011111111111111000000000000000000000000000000000000
0000000000000000000000000000000000000000000000000000000000000001100000
0000000000001111111111111111111111111111111111111111111111111111111111
1111111110111111111111111000000000000000000000000000000000000000000000
0000000000000000000000000000000000000000000000000000111100000000000000
0001111111111111111111111111111111111111111111111111111111111111111100
1111111111111111000000000000000000000000000000000000000000000000000000
0000000000000000000000000000000000000000011111100000000000000000111111
1111111111111111111111111111111111111111111111111111111110001111111111
1111111000000000000000000000000000000000000000000000000000000000000000
0000000000000000000000000000000111111100000000000000000011111111111111
1111111111111111111111111111111111111111111111000001111111111111111100
0000000000000000000000000000000000000000000000000000000000000000000000
0000000000000000000011111111110000000000000000011111111111111111111111
1111111111111111111111111111111111100000001111111111111111100000000000
0000000000000000000000000000000000000000000000000000000000000000000000
0000000001111111111110000000000000000011111111111111111111111111111111
1111111111111111111111110000000001111111111111111100000000000000000000
0000000000000000000000000000000000000000000000000000000000000000000011
1111111111110000000000000000011111111111111111111111111111111111111111
1111111111111000000000001111111111111111100000000000000000000000000000
0000000000000000000000000000000000000000000000000000000001111111111111
1110000000000000000011111111111111111111111111111111111111111111111111
1100000000000001111111111111111100000000000000000000000000000000000000
0000000000000000000000000000000000000000000000111111111111111111000000
0000000000011111111111111111111111111111111111111111111111111000000000
0000001111111111111111100000000000000000000000000000000000000000000000
0000000000000000000000000000000000011111111111111111111000000000000000
0011111111111111111111111111111111111111111111111100000000000000000111
1111111111111100000000000000000000000000000000000000000000000000000000
0000000000000000000000011111111111111111111111000000000000000001111111
1111111111111111111111111111111111111110000000000000000000011111111111
1111100000000000000000000000000000000000000000000000000000000000000111
1111111111111111111111111111111111111000000000000000001111111111111111
1111111111111111111111111111000000000000000000000011111111111111110000
0000000000000000000000001111111111111111111111111111111111111111111111
1111111111111111111111111111000000000000000001111111111111111111100111
1111111111111111100000000000000000000000011111111111111111111111111111
1111111111111111111111111111111111111111111111111111111111111111111111
1111111111111111111000000000000000001111111111111111110000011111111111
1111111000000000000000000000000011111111111111111111111111111111111111
1111111111111111111111111111111111111111111111111111111111111111111111
1111111111000000000000000001111111111111111000000011111111111111110000
0000000000000000000000011111111111111111111111111111111111111111111111
1111111111111111111111111111111111111111111111111111111111111111111111
1000000000000000001111111111111100000000011111111111111000000000000000
0000000000000011111111111111111111111111111111111111111111111111111111
1111111111111111111111111111111111111111111111111111111111111110000000
0000000000111111111110000000000011111111111100000000000000000000000000
0000011111111111111111111111111111111111111111111111111111111111111111
1111111111111111111111111111111111111111111111111111110000000000000000
0111111111000000000000001111111110000000000000000000000000000000001111
1111111111111111111111111111111111111111111111111111111111111111111111
1111111111111111111111111111111111111111111110000000000000000011111110
0000000000000001111111000000000000000000000000000000000001111111111111
1111111111111111111111111111111111111111111111111111111111111111111111
1111111111111111111111111111111111110000000000000000011111000000000000
0000000111000000000000000000000000000000000000001111111111111111111111
1111111111111111111111111111111111111111111111111111111111111111111111
1111111111111111111111111110000000000000000011100000000000000000000000
0000000000000000000000000000000000000001111111111111111111111111111111
1111111111111111111111111111111111111111111111111111111111111111111111
1111111111111111110000000000000000010000000000000000000000000000000000
0000000000000000000000000000011111111111111111111111111111111111111111
1111111111111111111111111111111111111111111111111111111111111111111111
1111111110000000000000000000000000000000000000000000000000000000000000
0000000000000000000111111111111111111111111111111111111111111111111111
1111111111111111111111111111111111111111111111111111111111111111111111
0000000000000000000000000000000000000000000000000000000000000000000000
0000000001111111111111111111111111111111111111111111111111111111111111
1111111111111111111111111111111111111111111111111111111111111000000000
0000000000000000000000000000000000000000000000000000000000000000000001
1111111111111111111111111111111111111111111111111111111111111111111111
1111111111111111111111111111111111111111111111111111000000000000000000
0000000000000000000000000000000000000000000000000000000000001111111111
1111111111111111111111111111111111111111111111111111111111111111111111
1111111111111111111111111111111111111111111000000000000000000000000000
0000000000000000000000000000000000000000000000000011111111111111111111
1111111111111111111111111111111111111111111111111111111111111111111111
1111111111111111111111111111111111000000000000000000000000000000000000
0000000000000000000000000000000000000000111111111111111111111111111111
1111111111111111111111111111111111111111111111111111111111111111111111
1111111111111111111111111100000000000000000000000000000000000000000000
0000000000000000000000000000001111111111111111111111111111111111111111
1111111111111111111111111111111111111111111111111111111111111111111111
1111111111111111100000000000000000000000000000000000000000000000000000
0000000000000000000011111111111111111111111111111111111111111111111111
1111111111111111111111111111111111111111111111111111111111111111111111
1111111100000000000000000000000000000000000000000000000000000000000000
0000000000111111111111111111111111111111111111111111111111111111111111
1111111111111111111111111111111111111111111111111111111111111111111100
0000000000000000000000000000000000000000000000000000000000000000000000
1111111111111111111111111111111111111111111111111111111111111111111111
1111111111111111111111111111111111111111111111111111111111000000000000
0000000000000000000000000000000000000000000000000000000000001111111111
1111111111111111111111111111111111111111111111111111111111111111111111
1111111111111111111111111111111111111111111111110000000000000000000000
0000000000000000000000000000000000000000000000000011111111111111111111
1111111111111111111111111111111111111111111111111111111111111111111111
1111111111111111111111111111111111111100000000000000000000000000000000
0000000000000000000000000000000000000000111111111111111111111111111111
1111111111111111111111111111111111111111111111111111111111111111111111
1111111111111111111111111111000000000000000000000000000000000000000000
0000000000000000000000000000001111111111111111111111111111111111111111
1111111111111111111111111111111111111111111111111111111111111111111111
1111111111111111110000000000000000000000000000000000000000000000000000
0000000000000000000011111111111111111111111111111111111111111111111111
1111111111111111111111111111111111111111111111111111111111111111111111
1111111100000000000000000000000000000000000000000000000000000000000000
0000000000111111111111111111111111111111111111111111111111111111111111
1111111111111111111111111111111111111111111111111111111111111111111100
0000000000000000000000000000000000000000000000000000000000000000000000
1111111111111111111111111111111111111111111111111111111111111111111111
1111111111111111111111111111111111111111111111111111111111100000000000
0000000000000000000000000000000000000000000000000000000000001111111111
1111111111111111111111111111111111111111111111111111111111111111111111
1111111111111111111111111111111111111111111111111000000000000000000000
0000000000000000000000000000000000000000000000000011111111111111111111
1111111111111111111111111111111111111111111111111111111111111111111111
1111111111111111111111111111111111111110000000000000000000000000000000
0000000000000000000000000000000000000000111111111111111111111111111111
1111111111111111111111111111111111111111111111111111111111111111111111
1111111111111111111111111111100000000000000000000000000000000000000000
0000000000000000000000000000001111111111111111111111111111111111111111
1111111111111111111111111111111111111111111111111111111111111111111111
1111111111111111111000000000000000000000000000000000000000000000000000
0000000000000000000011111111111111111111111111111111111111111111111111
1111111111111111111111111111111111111111111111111111111111111111111111
1111111110000000000000000000000000000000000000000000000000000000000000
0000000000111111111111111111111111111111111111111111111111111111111111
1111111111111111111111111111111111111111111111111111111111111111111110
0000000000000000000000000000000000000000000000000000000000000000000000
1111111111111111111111111111111111111111111111111111111111111111111111
1111111111111111111111111111111111111111111111111111111111100000000000
0000000000000000000000000000000000000000000000000000000000001111111111
1111111111111111111111111111111111111111111111111111111111111111111111
1111111111111111111111111111111111111111111111111000000000000000000000
0000000000000000000000000000000000000000000000000011111111111111111111
1111111111111111111111111111111111111111111111111111111111111111111111
1111111111111111111111111111111111111110000000000000000000000000000000
0000000000000000000000000000000000000000111111111111111111111111111111
1111111111111111111111111111111111111111111111111111111111111111111111
1111111111111111111111111111100000000000000000000000000000000000000000
0000000000000000000000000000001111111111111111111111111111111111111111
1111111111111111111111111111111111111111111111111111111111111111111111
1111111111111111111000000000000000000000000000000000000000000000000000
0000000000000000000011111111111111111111111111111111111111111111111111
1111111111111111111111111111111111111111111111111111111111111111111111
1111111110000000000000000000000000000000000000000000000000000000000000
0000000000111111111111111111111111111111111111111111111111111111111111
1111111111111111111111111111111111111111111111111111111111111111111110
0000000000000000000000000000000000000000000000000000000000000000000000
1111111111111111111111111111111111111111111111111111111111111111111111
1111111111111111111111111111111111111111111111111111111111100000000000
0000000000000000000000000000000000000000000000000000000000001111111111
1111111111111111111111111111111111111111111111111111111111111111111111
1111111111111111111111111111111111111111111111111000000000000000000000
0000000000000000000000000000000000000000000000000011111111111111111111
1111111111111111111111111111111111111111111111111111111111111111111111
1111111111111111111111111111111111111110000000000000000000000000000000
0000000000000000000000000000000000000000111111111111111111111111111111
1111111111111111111111111111111111111111111111111111111111111111111111
1111111111111111111111111111100000000000000000000000000000000000000000
0000000000000000000000000000001111111111111111111111111111111111111111
1111111111111111111111111111111111111111111111111111111111111111111111
1111111111111111111000000000000000000000000000000000000000000000000000
0000000000000000000011111111111111111111111111111111111111111111111111
1111111111111111111111111111111111111111111111111111111111111111111111
1111111110000000000000000000000000000000000000000000000000000000000000
0000000000111111111111111111111111111111111111111111111111111111111111
1111111111111111111111111111111111111111111111111111111111111111111110
0000000000000000000000000000000000000000000000000000000000000000000000
1111111111111111111111111111111111111111111111111111111111111111111111
1111111111111111111111111111111111111111111111111111111111100000000000
0000000000000000000000000000000000000000000000000000000000001111111111
1111111111111111111111111111111111111111111111111111111111111111111111
1111111111111111111111111111111111111111111111111000000000000000000000
0000000000000000000000000000000000000000000000000111111111111111111111
1111111111111111111111111111111111111111111111111111111111111111111111
1111111111111111111111111111111111111110000000000000000000000000000000
0000000000000000000000000000000000000011111111111111111111111111111111
1111111111111111111111111111111111111111111111111111111111111111111111
1111111111111111111111111111100000000000000000000000000000000000000000
0000000000000000000000000000111111111111111111111111111111111111111111
1111111111111111111111111111111111111111111111111111111111111111111111
1111111111111111111000000000000000000000000000000000000000000000000000
0000000000000000011111111111111111111111111111111111111111111111111111
1111111111111111111111111111111111111111111111111111111111111111111111
1111111110000000000000000000000000000000000000000000000000000000000000
0000001111111111111111111111111111111111111111111111111111111111111111
1111111111111111111111111111111111111111111111111111111111111111111110
0000000000000000000000000000000000000000000000000000000000000000011111
1111111111111111111111111111111111111111111111111111111111111111111111
1111111111111111111111111111111111111111111111111111111111100000000000
0000000000000000000000000000000000000000000000000000001111111111111111
1111111111111111111111111111111111111111111111111111111111111111111111
1111111111111111111111111111111111111111111111111000000000000000000000
0000000000000000000000000000000000000000000011111111111111111111111111
1111111111111111111111111111111111111111111111111111111111111111111111
1111111111111111111111111111111111111110000000000000000000000000000000
0000000000000000000000000000000000111111111111111111111111111111111111
1111111111111100000000000000000000000000000000000000000000000000000000
0000011111111111111111111111100000000000000000000000000000000000000000
0000000000000000000000001111111111111111111111111111111111111111111111
1110000000000000000000000000000000000000000000000000000000000000011111
1111111111111111111000000000000000000000000000000000000000000000000000
0000000000000011111111111111111111111111111111111111111111111100000000
0000000000000000000000000000000000000000000000000000000111111111111111
1111111110000000000000000000000000000000000000000000000000000000000000
0000111111111111111111111111111111111111111111111110000000000000000000
0000000000000000000000000000000000000000000001111111111111111111111110
0000000000000000000000000000000000000000000000000000000000000000111111
1111111111111111111111111111111111111111000000000000000000000000000000
0000000000000000000000000000000000011111111111111111111111100000000000
0000000000000000000000000000000000000000000000000000000111111111111111
1111111111111111111111111111100000000000000000000000000000000000000000
0000000000000000000000000111111111111111111111111000000000000000000000
0000000000000000000000000000000000000000000001111111111111111111111111
1111111111111111110000000000000000000000000000000000000000000000000000
0000000000000001111111111111111111111110000000000000000000000000000000
0000000000000000000000000000000000011111111111111111111111111111111111
1111111000000000000000000000000000000000000000000000000000000000000000
0000011111111111111111111111100000000000000000000000000000000000000000
0000000000000000000000000111111111111111111111111111111111111111110000
0000000000000000000000000000000000000000000000000000000000000000011111
1111111111111111111000000000000000000000000000000000000000000000000000
0000000000000001111111111111111111111111111111111111111000000000000000
0000000000000000000000000000000000000000000000000000000111111111111111
1111111110000000000000000000000000000000000000000000000000000000000000
0000011111111111111111111111111111111111111100000000000000000000000000
0000000000000000000000000000000000000000000001111111111111111111111110
0000000000000000000000000000000000000000000000000000000000000000011111
1111111111111111111111111111111110000000000000000000000000000000000000
0000000000000000000000000000000000011111111111111111111111100000000000
0000000000000000000000000000000000000000000000000000000111111111111111
1111111111111111111111000000000000000000000000000000000000000000000000
0000000000000000000000000111111111111111111111111000000000000000000000
0000000000000000000000000000000000000000000001111111111111111111111111
1111111111110000000000000000000000000000000000000000000000000000000000
0000000000000001111111111111111111111110000000000000000000000000000000
0000000000000000000000000000000000011111111111111111111111111111111111
1000000000000000000000000000000000000000000000000000000000000000000000
0000011111111111111111111111100000000000000000000000000000000000000000
0000000000000000000000000111111111111111111111111111111111110000000000
0000000000000000000000000000000000000000000000000000000000000000011111
1111111111111111111000000000000000000000000000000000000000000000000000
0000000000000001111111111111111111111111111111111000000000000000000000
0000000000000000000000000000000000000000000000000000000111111111111111
1111111110000000000000000000000000000000000000000000000000000000000000
0000011111111111111111111111111111111100000000000000000000000000000000
0000000000000000000000000000000000000000000001111111111111111111111110
0000000000000000000000000000000000000000000000000000000000000000011111
1111111111111111111111111110000000000000000000000000000000000000000000
0000000000000000000000000000000000011111111111111111111111100000000000
0000000000000000000000000000000000000000000000000000000111111111111111
1111111111111111000000000000000000000000000000000000000000000000000000
0000000000000000000000000111111111111111111111111000000000000000000000
0000000000000000000000000000000000000000000001111111111111111111111111
1111100000000000000000000000000000000000000000000000000000000000000000
0000000000000001111111111111111111111110000000000000000000000000000000
0000000000000000000000000000000000011111111111111111111111111111000000
0000000000000000000000000000000000000000000000000000000000000000000000
0000011111111111111111111111100000000000000000000000000000000000000000
0000000000000000000000000111111111111111111111111111100000000000000000
0000000000000000000000000000000000000000000000000000000000000000011111
1111111111111111111000000000000000000000000000000000000000000000000000
0000000000000001111111111111111111111111110000000000000000000000000000
0000000000000000000000000000000000000000000000000000000111111111111111
1111111110000000000000000000000000000000000000000000000000000000000000
0000011111111111111111111111111000000000000000000000000000000000000000
0000000000000000000000000000000000000000000001111111111111111111111110
0000000000000000000000000000000000000000000000000000000000000000011111
1111111111111111111100000000000000000000000000000000000000000000000000
0000000000000000000000000000000000011111111111111111111111100000000000
0000000000000000000000000000000000000000000000000000000111111111111111
1111111110000000000000000000000000000000000000000000000000000000000000
0000000000000000000000000111111111111111111111111000000000000000000000
0000000000000000000000000000000000000000000001111111111111111111111100
0000000000000000000000000000000000000000000000000000000000000000000000
0000000000000001111111111111111111111111000000000000000000000000000000
0000000000000000000000000000000000011111111111111111111111000000000000
0000000000000000000000000000000000000000000000000000000000000000000000
0000011111111111111111111111110000000000000000000000000000000000000000
0000000000000000000000000111111111111111111111110000000000000000000000
0000000000000000000000000000000000000000000000000000000000000000011111
1111111111111111111100000000000000000000000000000000000000000000000000
0000000000000001111111111111111111111100000000000000000000000000000000
0000000000000000000000000000000000000000000000000000000111111111111111
1111111111000000000000000000000000000000000000000000000000000000000000
0000011111111111111111111111000000000000000000000000000000000000000000
0000000000000000000000000000000000000000000001111111111111111111111111
0000000000000000000000000000000000000000000000000000000000000000011111
1111111111111111110000000000000000000000000000000000000000000000000000
0000000000000000000000000000000000011111111111111111111111110000000000
0000000000000000000000000000000000000000000000000000000111111111111111
1111111100000000000000000000000000000000000000000000000000000000000000
0000000000000000000000000111111111111111111111111100000000000000000000
0000000000000000000000000000000000000000000001111111111111111111111100
0000000000000000000000000000000000000000000000000000000000000000000000
0000000000000001111111111111111111111111000000000000000000000000000000
0000000000000000000000000000000000001111111111111111111111000000000000
0000000000000000000000000000000000000000000000000000000000000000000000
0000011111111111111111111111110000000000000000000000000000000000000000
0000000000000000000000000011111111111111111111110000000000000000000000
0000000000000000000000000000000000000000000000000000000000000000011111
1111111111111111111100000000000000000000000000000000000000000000000000
0000000000000000111111111111111111111100000000000000000000000000000000
0000000000000000000000000000000000000000000000000000000111111111111111
1111111111000000000000000000000000000000000000000000000000000000000000
0000001111111111111111111111000000000000000000000000000000000000000000
0000000000000000000000000000000000000000000001111111111111111111111111
0000000000000000000000000000000000000000000000000000000000000000001111
1111111111111111110000000000000000000000000000000000000000000000000000
0000000000000000000000000000000000011111111111111111111111110000000000
0000000000000000000000000000000000000000000000000000000011111111111111
1111111100000000000000000000000000000000000000000000000000000000000000
0000000000000000000000000111111111111111111111111100000000000000000000
0000000000000000000000000000000000000000000000111111111111111111111100
0000000000000000000000000000000000000000000000000000000000000000000000
0000000000000001111111111111111111111111000000000000000000000000000000
0000000000000000000000000000000000001111111111111111111111000000000000
0000000000000000000000000000000000000000000000000000000000000000000000
0000011111111111111111111111110000000000000000000000000000000000000000
0000000000000000000000000011111111111111111111110000000000000000000000
0000000000000000000000000000000000000000000000000000000000000000011111
1111111111111111111100000000000000000000000000000000000000000000000000
0000000000000000111111111111111111111100000000000000000000000000000000
0000000000000000000000000000000000000000000000000000000111111111111111
1111111111000000000000000000000000000000000000000000000000000000000000
0000001111111111111111111111000000000000000000000000000000000000000000
0000000000000000000000000000000000000000000001111111111111111111111111
0000000000000000000000000000000000000000000000000000000000000000001111
1111111111111111110000000000000000000000000000000000000000000000000000
0000000000000000000000000000000000011111111111111111111111110000000000
0000000000000000000000000000000000000000000000000000000011111111111111
1111111100000000000000000000000000000000000000000000000000000000000000
0000000000000000000000000111111111111111111111111100000000000000000000
0000000000000000000000000000000000000000000000111111111111111111111100
0000000000000000000000000000000000000000000000000000000000000000000000
0000000000000001111111111111111111111111000000000000000000000000000000
0000000000000000000000000000000000001111111111111111111111000000000000
0000000000000000000000000000000000000000000000000000000000000000000000
0000011111111111111111111111110000000000000000000000000000000000000000
0000000000000000000000000011111111111111111111110000000000000000000000
0000000000000000000000000000000000000000000000000000000000000000011111
1111111111111111111100000000000000000000000000000000000000000000000000
0000000000000000111111111111111111111100000000000000000000000000000000
0000000000000000000000000000000000000000000000000000000111111111111111
1111111111000000000000000000000000000000000000000000000000000000000000
0000001111111111111111111111000000000000000000000000000000000000000000
0000000000000000000000000000000000000000000001111111111111111111111111
0000000000000000000000000000000000000000000000000000000000000000001111
1111111111111111110000000000000000000000000000000000000000000000000000
0000000000000000000000000000000000011111111111111111111111110000000000
0000000000000000000000000000000000000000000000000000000011111111111111
1111111100000000000000000000000000000000000000000000000000000000000000
0000000000000000000000000111111111111111111111111100000000000000000000
0000000000000000000000000000000000000000000000111111111111111111111100
0000000000000000000000000000000000000000000000000000000000000000000000
0000000000000001111111111111111111111111000000000000000000000000000000
0000000000000000000000000000000000001111111111111111111111000000000000
0000000000000000000000000000000000000000000000000000000000000000000000
0000011111111111111111111111110000000000000000000000000000000000000000
0000000000000000000000000011111111111111111111110000000000000000000000
0000000000000000000000000000000000000000000000000000000000000000011111
1111111111111111111100000000000000000000000000000000000000000000000000
0000000000000000111111111111111111111100000000000000000000000000000000
0000000000000000000000000000000000000000000000000000000111111000000000
0000000000000000000000000000000000000000000000000000000000000000000000
0000001111111111111111111111000000000000000000000000000000000000000000
0000000000000000000000000000000000000000000000000000000000000000000000
00000000000000000000000000000000000000000000000000