<svg id="svg" xmlns="http://www.w3.org/2000/svg" xmlns:xlink="http://www.w3.org/1999/xlink" width="400" height="368" viewBox="0, 0, 400,368"><g id="svgg"><path id="path0" d="M326.335 0.605 C 326.335 1.392,319.671 9.123,313.996 14.919 C 310.547 18.443,306.137 23.158,303.315 26.342 C 301.897 27.941,299.576 30.513,298.158 32.056 C 296.740 33.600,293.924 36.673,291.900 38.886 C 289.875 41.099,286.892 44.304,285.270 46.007 C 283.648 47.711,281.916 49.532,281.421 50.055 C 280.926 50.577,278.588 53.244,276.226 55.981 C 273.864 58.718,270.125 62.811,267.918 65.076 C 265.710 67.340,262.578 70.632,260.958 72.390 C 259.337 74.148,257.680 75.940,257.274 76.371 C 256.869 76.803,255.460 78.403,254.144 79.926 C 251.740 82.707,249.100 85.595,246.869 87.882 C 245.160 89.635,245.246 90.924,247.194 92.711 C 248.869 94.248,250.130 95.447,258.987 103.921 C 262.299 107.090,266.337 110.819,267.960 112.208 C 269.583 113.597,271.240 115.023,271.643 115.378 C 272.820 116.413,279.049 122.351,283.245 126.435 C 286.923 130.016,291.876 134.631,297.974 140.161 C 303.333 145.021,308.828 150.104,309.805 151.105 C 311.305 152.642,309.627 154.017,323.518 139.871 C 331.856 131.380,332.251 131.140,334.588 133.150 C 335.176 133.656,335.792 134.070,335.956 134.070 C 336.120 134.070,336.758 134.526,337.374 135.083 C 339.011 136.563,341.617 138.652,347.462 143.167 C 348.301 143.815,349.507 144.768,350.143 145.285 C 350.778 145.802,351.444 146.225,351.621 146.225 C 351.799 146.225,352.605 146.582,353.412 147.018 C 358.199 149.604,363.279 146.797,371.823 136.842 C 372.836 135.662,374.390 133.894,375.277 132.914 C 376.163 131.934,377.572 130.345,378.407 129.383 C 379.243 128.421,381.335 126.192,383.057 124.430 C 390.313 117.005,398.895 107.446,398.895 106.789 C 398.895 106.600,399.144 106.446,399.448 106.446 C 399.754 106.446,400.000 106.118,400.000 105.709 C 400.000 105.304,399.772 104.972,399.493 104.972 C 399.215 104.972,393.289 99.156,386.326 92.048 C 379.362 84.939,363.828 69.264,351.806 57.214 L 329.947 35.305 330.217 19.365 C 330.365 10.598,330.371 2.654,330.230 1.712 L 329.973 0.000 328.154 0.000 C 326.713 0.000,326.335 0.126,326.335 0.605 M9.883 100.139 C 7.865 100.569,2.645 105.234,1.861 107.310 C 1.643 107.887,1.135 108.445,0.732 108.550 C -0.224 108.800,-0.420 116.390,0.529 116.390 C 0.820 116.390,2.455 117.758,4.162 119.429 C 5.869 121.100,8.158 123.265,9.250 124.238 C 10.341 125.212,11.648 126.386,12.155 126.846 C 12.661 127.306,14.843 129.211,17.004 131.079 C 19.164 132.947,21.754 135.254,22.758 136.206 C 23.763 137.158,26.056 139.308,27.854 140.983 C 29.652 142.658,32.787 145.590,34.820 147.499 L 38.517 150.971 38.987 158.266 C 39.786 170.654,40.087 182.681,40.211 207.220 L 40.331 230.831 38.271 233.187 C 37.137 234.483,35.996 235.947,35.735 236.441 C 35.148 237.549,35.176 237.512,32.326 240.884 C 28.022 245.975,27.805 246.887,28.740 255.985 C 28.938 257.910,29.272 261.308,29.482 263.536 C 29.692 265.764,30.014 278.361,30.198 291.529 C 30.391 305.304,30.695 316.227,30.915 317.254 C 31.659 320.719,32.033 330.009,32.039 345.154 C 32.042 353.581,32.152 362.241,32.284 364.399 L 32.524 368.324 54.476 368.324 L 76.427 368.324 76.297 336.330 L 76.167 304.335 78.308 301.799 C 79.486 300.404,81.782 297.888,83.411 296.208 C 85.039 294.527,88.112 291.359,90.239 289.167 C 94.619 284.654,99.839 279.056,105.212 273.112 C 111.559 266.091,112.088 265.516,115.101 262.381 C 119.261 258.052,121.052 256.232,121.613 255.762 C 121.881 255.538,123.094 254.251,124.309 252.902 C 128.277 248.499,120.119 248.994,189.060 248.974 L 249.171 248.956 249.626 249.801 C 249.982 250.460,250.082 263.036,250.087 307.250 C 250.090 344.875,250.218 364.188,250.468 364.846 L 250.845 365.835 258.664 365.595 C 262.964 365.463,273.858 365.193,282.873 364.995 C 297.541 364.672,299.312 364.569,299.724 364.015 C 300.510 362.957,300.344 350.773,298.717 289.871 C 298.509 282.072,298.175 259.116,297.976 238.858 C 297.561 196.620,296.830 171.477,295.972 169.887 C 295.671 169.331,294.797 168.356,294.030 167.720 C 291.166 165.347,287.049 161.738,285.218 159.995 C 282.918 157.805,280.242 155.216,279.742 154.696 C 278.524 153.430,272.569 147.807,269.796 145.304 C 258.982 135.546,249.252 126.533,245.140 122.468 C 244.116 121.455,241.455 119.059,239.227 117.143 C 234.806 113.343,232.176 110.968,230.336 109.116 C 228.097 106.862,226.394 107.814,222.948 113.245 C 219.990 117.909,210.732 126.997,207.735 128.180 C 207.026 128.460,205.985 129.022,205.423 129.430 C 204.464 130.125,203.599 130.189,191.611 130.451 C 184.577 130.604,175.589 130.987,171.639 131.302 C 167.183 131.656,155.421 132.012,140.654 132.238 C 127.563 132.438,112.978 132.852,108.242 133.157 C 99.209 133.739,56.634 134.615,54.650 134.260 C 53.778 134.104,51.748 132.334,46.292 126.972 C 29.302 110.275,24.931 106.138,22.072 104.052 C 20.407 102.836,18.686 101.463,18.248 101.000 C 17.360 100.062,12.566 99.569,9.883 100.139 " stroke="none" fill="#050505" fill-rule="evenodd"></path><path id="path1" d="M-0.000 54.355 C -0.000 105.905,0.033 108.703,0.644 108.586 C 0.998 108.517,1.568 107.866,1.911 107.138 C 2.500 105.888,6.485 101.906,8.455 100.600 C 10.091 99.515,17.064 99.745,18.174 100.921 C 18.653 101.427,20.407 102.836,22.072 104.052 C 24.931 106.138,29.302 110.275,46.292 126.972 C 51.748 132.334,53.778 134.104,54.650 134.260 C 56.634 134.615,99.209 133.739,108.242 133.157 C 112.978 132.852,127.563 132.438,140.654 132.238 C 155.421 132.012,167.183 131.656,171.639 131.302 C 175.589 130.987,184.577 130.604,191.611 130.451 C 203.599 130.189,204.464 130.125,205.423 129.430 C 205.985 129.022,207.026 128.460,207.735 128.180 C 210.732 126.997,219.990 117.909,222.948 113.245 C 226.394 107.814,228.097 106.862,230.336 109.116 C 232.176 110.968,234.806 113.343,239.227 117.143 C 241.455 119.059,244.116 121.455,245.140 122.468 C 249.252 126.533,258.982 135.546,269.796 145.304 C 272.569 147.807,278.524 153.430,279.742 154.696 C 280.242 155.216,282.918 157.805,285.218 159.995 C 287.049 161.738,291.166 165.347,294.030 167.720 C 294.797 168.356,295.671 169.331,295.972 169.887 C 296.830 171.477,297.561 196.620,297.976 238.858 C 298.175 259.116,298.509 282.072,298.717 289.871 C 300.344 350.773,300.510 362.957,299.724 364.015 C 299.312 364.569,297.541 364.672,282.873 364.995 C 273.858 365.193,262.964 365.463,258.664 365.595 L 250.845 365.835 250.468 364.846 C 250.218 364.188,250.090 344.875,250.087 307.250 C 250.082 263.036,249.982 250.460,249.626 249.801 L 249.171 248.956 189.060 248.974 C 120.119 248.994,128.277 248.499,124.309 252.902 C 123.094 254.251,121.881 255.538,121.613 255.762 C 121.052 256.232,119.261 258.052,115.101 262.381 C 112.088 265.516,111.559 266.091,105.212 273.112 C 99.839 279.056,94.619 284.654,90.239 289.167 C 88.112 291.359,85.039 294.527,83.411 296.208 C 81.782 297.888,79.503 300.384,78.346 301.754 L 76.243 304.246 76.243 330.149 C 76.243 344.395,76.352 358.813,76.485 362.188 L 76.727 368.324 238.364 368.324 L 400.000 368.324 400.000 237.385 C 400.000 121.240,399.938 106.446,399.448 106.446 C 399.144 106.446,398.895 106.600,398.895 106.789 C 398.895 107.446,390.313 117.005,383.057 124.430 C 381.335 126.192,379.243 128.421,378.407 129.383 C 377.572 130.345,376.163 131.934,375.277 132.914 C 374.390 133.894,372.836 135.662,371.823 136.842 C 363.279 146.797,358.199 149.604,353.412 147.018 C 352.605 146.582,351.799 146.225,351.621 146.225 C 351.444 146.225,350.778 145.802,350.143 145.285 C 349.507 144.768,348.301 143.815,347.462 143.167 C 344.787 141.101,343.603 140.177,342.041 138.938 C 339.316 136.776,338.512 136.112,337.374 135.083 C 336.758 134.526,336.120 134.070,335.956 134.070 C 335.792 134.070,335.176 133.656,334.588 133.150 C 332.251 131.140,331.856 131.380,323.518 139.871 C 309.627 154.017,311.305 152.642,309.805 151.105 C 308.828 150.104,303.333 145.021,297.974 140.161 C 291.876 134.631,286.923 130.016,283.245 126.435 C 279.049 122.351,272.820 116.413,271.643 115.378 C 271.240 115.023,269.583 113.597,267.960 112.208 C 266.337 110.819,262.299 107.090,258.987 103.921 C 250.130 95.447,248.869 94.248,247.194 92.711 C 245.246 90.924,245.160 89.635,246.869 87.882 C 249.100 85.595,251.740 82.707,254.144 79.926 C 255.460 78.403,256.869 76.803,257.274 76.371 C 257.680 75.940,259.337 74.148,260.958 72.390 C 262.578 70.632,265.710 67.340,267.918 65.076 C 270.125 62.811,273.864 58.718,276.226 55.981 C 278.588 53.244,280.926 50.577,281.421 50.055 C 281.916 49.532,283.648 47.711,285.270 46.007 C 286.892 44.304,289.875 41.099,291.900 38.886 C 293.924 36.673,296.740 33.600,298.158 32.056 C 299.576 30.513,301.897 27.941,303.315 26.342 C 306.137 23.158,310.547 18.443,313.996 14.919 C 319.671 9.123,326.335 1.392,326.335 0.605 C 326.335 0.045,314.243 0.000,163.168 0.000 L 0.000 0.000 -0.000 54.355 M330.102 17.682 L 330.002 35.361 351.833 57.242 C 363.841 69.276,379.362 84.939,386.326 92.048 C 393.289 99.156,399.215 104.972,399.493 104.972 C 399.921 104.972,400.000 96.788,400.000 52.486 L 400.000 0.000 365.101 0.001 L 330.203 0.003 330.102 17.682 M0.000 242.357 L 0.000 368.324 16.117 368.324 L 32.234 368.324 32.136 350.000 C 32.038 331.791,31.607 320.299,30.903 317.127 C 30.700 316.215,30.384 304.703,30.199 291.529 C 30.015 278.361,29.692 265.764,29.482 263.536 C 29.272 261.308,28.938 257.910,28.740 255.985 C 27.805 246.887,28.022 245.975,32.326 240.884 C 35.176 237.512,35.148 237.549,35.735 236.441 C 35.996 235.947,37.137 234.483,38.271 233.187 L 40.331 230.831 40.211 207.220 C 40.087 182.681,39.786 170.654,38.987 158.266 L 38.517 150.971 34.820 147.499 C 32.787 145.590,29.652 142.658,27.854 140.983 C 26.056 139.308,23.763 137.158,22.758 136.206 C 21.754 135.254,19.164 132.947,17.004 131.079 C 14.843 129.211,12.661 127.306,12.155 126.846 C 11.648 126.386,10.341 125.212,9.250 124.238 C 8.158 123.265,5.869 121.100,4.162 119.429 C 2.455 117.758,0.820 116.390,0.529 116.390 C 0.070 116.390,0.000 133.080,0.000 242.357 " stroke="none" fill="#fbfbfb" fill-rule="evenodd"></path></g></svg>